<svg width="800" height="600" viewBox="0 0 800 600" xmlns="http://www.w3.org/2000/svg"
  xmlns:xlink="http://www.w3.org/1999/xlink" data-cache="1739631382219">
  <style>
    path.line-0 {
    stroke-dasharray: 136 141;
    stroke-dashoffset: 136;
    animation: draw-0 6982.145818732282ms ease forwards infinite;
    }
    @keyframes draw-0 {
    0% { stroke-dashoffset: 136; }
    3.88% { stroke-dashoffset: 0; }
    98.28% { stroke-dashoffset: 0; }
    98.64% { stroke-dashoffset: 136; }
    100% { stroke-dashoffset: 136; }
    }
    path.line-1 {
    stroke-dasharray: 413 418;
    stroke-dashoffset: 413;
    animation: draw-1 6982.145818732282ms ease forwards infinite;
    }
    @keyframes draw-1 {
    0% { stroke-dashoffset: 413; }
    3.884147698629655% { stroke-dashoffset: 413; }
    15.72% { stroke-dashoffset: 0; }
    97.42% { stroke-dashoffset: 0; }
    98.50% { stroke-dashoffset: 413; }
    100% { stroke-dashoffset: 413; }
    }
    path.line-2 {
    stroke-dasharray: 57 62;
    stroke-dashoffset: 57;
    animation: draw-2 6982.145818732282ms ease forwards infinite;
    }
    @keyframes draw-2 {
    0% { stroke-dashoffset: 57; }
    15.723221556843859% { stroke-dashoffset: 57; }
    17.37% { stroke-dashoffset: 0; }
    97.30% { stroke-dashoffset: 0; }
    97.45% { stroke-dashoffset: 57; }
    100% { stroke-dashoffset: 57; }
    }
    path.line-3 {
    stroke-dasharray: 73 78;
    stroke-dashoffset: 73;
    animation: draw-3 6982.145818732282ms ease forwards infinite;
    }
    @keyframes draw-3 {
    0% { stroke-dashoffset: 73; }
    17.366146544053287% { stroke-dashoffset: 73; }
    19.47% { stroke-dashoffset: 0; }
    97.15% { stroke-dashoffset: 0; }
    97.34% { stroke-dashoffset: 73; }
    100% { stroke-dashoffset: 73; }
    }
    path.line-4 {
    stroke-dasharray: 109 114;
    stroke-dashoffset: 109;
    animation: draw-4 6982.145818732282ms ease forwards infinite;
    }
    @keyframes draw-4 {
    0% { stroke-dashoffset: 109; }
    19.46518710554869% { stroke-dashoffset: 109; }
    22.59% { stroke-dashoffset: 0; }
    96.92% { stroke-dashoffset: 0; }
    97.20% { stroke-dashoffset: 109; }
    100% { stroke-dashoffset: 109; }
    }
    path.line-5 {
    stroke-dasharray: 34 39;
    stroke-dashoffset: 34;
    animation: draw-5 6982.145818732282ms ease forwards infinite;
    }
    @keyframes draw-5 {
    0% { stroke-dashoffset: 34; }
    22.592479404535233% { stroke-dashoffset: 34; }
    23.57% { stroke-dashoffset: 0; }
    96.85% { stroke-dashoffset: 0; }
    96.94% { stroke-dashoffset: 34; }
    100% { stroke-dashoffset: 34; }
    }
    path.line-6 {
    stroke-dasharray: 122 127;
    stroke-dashoffset: 122;
    animation: draw-6 6982.145818732282ms ease forwards infinite;
    }
    @keyframes draw-6 {
    0% { stroke-dashoffset: 122; }
    23.56991833266731% { stroke-dashoffset: 122; }
    27.06% { stroke-dashoffset: 0; }
    96.59% { stroke-dashoffset: 0; }
    96.91% { stroke-dashoffset: 122; }
    100% { stroke-dashoffset: 122; }
    }
    path.line-7 {
    stroke-dasharray: 19 24;
    stroke-dashoffset: 19;
    animation: draw-7 6982.145818732282ms ease forwards infinite;
    }
    @keyframes draw-7 {
    0% { stroke-dashoffset: 19; }
    27.0608312270833% { stroke-dashoffset: 19; }
    27.61% { stroke-dashoffset: 0; }
    96.55% { stroke-dashoffset: 0; }
    96.60% { stroke-dashoffset: 19; }
    100% { stroke-dashoffset: 19; }
    }
    path.line-8 {
    stroke-dasharray: 37 42;
    stroke-dashoffset: 37;
    animation: draw-8 6982.145818732282ms ease forwards infinite;
    }
    @keyframes draw-8 {
    0% { stroke-dashoffset: 37; }
    27.60507652052948% { stroke-dashoffset: 37; }
    28.67% { stroke-dashoffset: 0; }
    96.48% { stroke-dashoffset: 0; }
    96.57% { stroke-dashoffset: 37; }
    100% { stroke-dashoffset: 37; }
    }
    path.line-9 {
    stroke-dasharray: 78 83;
    stroke-dashoffset: 78;
    animation: draw-9 6982.145818732282ms ease forwards infinite;
    }
    @keyframes draw-9 {
    0% { stroke-dashoffset: 78; }
    28.671418408220777% { stroke-dashoffset: 78; }
    30.90% { stroke-dashoffset: 0; }
    96.31% { stroke-dashoffset: 0; }
    96.52% { stroke-dashoffset: 78; }
    100% { stroke-dashoffset: 78; }
    }
    path.line-10 {
    stroke-dasharray: 63 68;
    stroke-dashoffset: 63;
    animation: draw-10 6982.145818732282ms ease forwards infinite;
    }
    @keyframes draw-10 {
    0% { stroke-dashoffset: 63; }
    30.903545260717713% { stroke-dashoffset: 63; }
    32.70% { stroke-dashoffset: 0; }
    96.18% { stroke-dashoffset: 0; }
    96.35% { stroke-dashoffset: 63; }
    100% { stroke-dashoffset: 63; }
    }
    path.line-11 {
    stroke-dasharray: 131 136;
    stroke-dashoffset: 131;
    animation: draw-11 6982.145818732282ms ease forwards infinite;
    }
    @keyframes draw-11 {
    0% { stroke-dashoffset: 131; }
    32.69707514526711% { stroke-dashoffset: 131; }
    36.44% { stroke-dashoffset: 0; }
    95.91% { stroke-dashoffset: 0; }
    96.25% { stroke-dashoffset: 131; }
    100% { stroke-dashoffset: 131; }
    }
    path.line-12 {
    stroke-dasharray: 80 85;
    stroke-dashoffset: 80;
    animation: draw-12 6982.145818732282ms ease forwards infinite;
    }
    @keyframes draw-12 {
    0% { stroke-dashoffset: 80; }
    36.436280467681286% { stroke-dashoffset: 80; }
    38.73% { stroke-dashoffset: 0; }
    95.74% { stroke-dashoffset: 0; }
    95.95% { stroke-dashoffset: 80; }
    100% { stroke-dashoffset: 80; }
    }
    path.line-13 {
    stroke-dasharray: 97 102;
    stroke-dashoffset: 97;
    animation: draw-13 6982.145818732282ms ease forwards infinite;
    }
    @keyframes draw-13 {
    0% { stroke-dashoffset: 97; }
    38.72612251296924% { stroke-dashoffset: 97; }
    41.50% { stroke-dashoffset: 0; }
    95.54% { stroke-dashoffset: 0; }
    95.79% { stroke-dashoffset: 97; }
    100% { stroke-dashoffset: 97; }
    }
    path.line-14 {
    stroke-dasharray: 140 145;
    stroke-dashoffset: 140;
    animation: draw-14 6982.145818732282ms ease forwards infinite;
    }
    @keyframes draw-14 {
    0% { stroke-dashoffset: 140; }
    41.50202137773473% { stroke-dashoffset: 140; }
    45.51% { stroke-dashoffset: 0; }
    95.25% { stroke-dashoffset: 0; }
    95.61% { stroke-dashoffset: 140; }
    100% { stroke-dashoffset: 140; }
    }
    path.line-15 {
    stroke-dasharray: 128 133;
    stroke-dashoffset: 128;
    animation: draw-15 6982.145818732282ms ease forwards infinite;
    }
    @keyframes draw-15 {
    0% { stroke-dashoffset: 128; }
    45.51150593804691% { stroke-dashoffset: 128; }
    49.19% { stroke-dashoffset: 0; }
    94.98% { stroke-dashoffset: 0; }
    95.31% { stroke-dashoffset: 128; }
    100% { stroke-dashoffset: 128; }
    }
    path.line-16 {
    stroke-dasharray: 50 55;
    stroke-dashoffset: 50;
    animation: draw-16 6982.145818732282ms ease forwards infinite;
    }
    @keyframes draw-16 {
    0% { stroke-dashoffset: 50; }
    49.18930446537096% { stroke-dashoffset: 50; }
    50.63% { stroke-dashoffset: 0; }
    94.87% { stroke-dashoffset: 0; }
    95.01% { stroke-dashoffset: 50; }
    100% { stroke-dashoffset: 50; }
    }
    path.line-17 {
    stroke-dasharray: 178 183;
    stroke-dashoffset: 178;
    animation: draw-17 6982.145818732282ms ease forwards infinite;
    }
    @keyframes draw-17 {
    0% { stroke-dashoffset: 178; }
    50.630825643153344% { stroke-dashoffset: 178; }
    55.73% { stroke-dashoffset: 0; }
    94.50% { stroke-dashoffset: 0; }
    94.97% { stroke-dashoffset: 178; }
    100% { stroke-dashoffset: 178; }
    }
    path.line-18 {
    stroke-dasharray: 82 87;
    stroke-dashoffset: 82;
    animation: draw-18 6982.145818732282ms ease forwards infinite;
    }
    @keyframes draw-18 {
    0% { stroke-dashoffset: 82; }
    55.73316979952981% { stroke-dashoffset: 82; }
    58.09% { stroke-dashoffset: 0; }
    94.33% { stroke-dashoffset: 0; }
    94.54% { stroke-dashoffset: 82; }
    100% { stroke-dashoffset: 82; }
    }
    path.line-19 {
    stroke-dasharray: 52 57;
    stroke-dashoffset: 52;
    animation: draw-19 6982.145818732282ms ease forwards infinite;
    }
    @keyframes draw-19 {
    0% { stroke-dashoffset: 52; }
    58.08676134596716% { stroke-dashoffset: 52; }
    59.59% { stroke-dashoffset: 0; }
    94.22% { stroke-dashoffset: 0; }
    94.36% { stroke-dashoffset: 52; }
    100% { stroke-dashoffset: 52; }
    }
    path.line-20 {
    stroke-dasharray: 42 47;
    stroke-dashoffset: 42;
    animation: draw-20 6982.145818732282ms ease forwards infinite;
    }
    @keyframes draw-20 {
    0% { stroke-dashoffset: 42; }
    59.58594226292865% { stroke-dashoffset: 42; }
    60.79% { stroke-dashoffset: 0; }
    94.13% { stroke-dashoffset: 0; }
    94.24% { stroke-dashoffset: 42; }
    100% { stroke-dashoffset: 42; }
    }
    path.line-21 {
    stroke-dasharray: 196 201;
    stroke-dashoffset: 196;
    animation: draw-21 6982.145818732282ms ease forwards infinite;
    }
    @keyframes draw-21 {
    0% { stroke-dashoffset: 196; }
    60.79235341323458% { stroke-dashoffset: 196; }
    66.42% { stroke-dashoffset: 0; }
    93.72% { stroke-dashoffset: 0; }
    94.23% { stroke-dashoffset: 196; }
    100% { stroke-dashoffset: 196; }
    }
    path.line-22 {
    stroke-dasharray: 47 52;
    stroke-dashoffset: 47;
    animation: draw-22 6982.145818732282ms ease forwards infinite;
    }
    @keyframes draw-22 {
    0% { stroke-dashoffset: 47; }
    66.41537704848068% { stroke-dashoffset: 47; }
    67.78% { stroke-dashoffset: 0; }
    93.62% { stroke-dashoffset: 0; }
    93.75% { stroke-dashoffset: 47; }
    100% { stroke-dashoffset: 47; }
    }
    path.line-23 {
    stroke-dasharray: 168 173;
    stroke-dashoffset: 168;
    animation: draw-23 6982.145818732282ms ease forwards infinite;
    }
    @keyframes draw-23 {
    0% { stroke-dashoffset: 168; }
    67.77538555832653% { stroke-dashoffset: 168; }
    72.59% { stroke-dashoffset: 0; }
    93.27% { stroke-dashoffset: 0; }
    93.71% { stroke-dashoffset: 168; }
    100% { stroke-dashoffset: 168; }
    }
    path.line-24 {
    stroke-dasharray: 207 212;
    stroke-dashoffset: 207;
    animation: draw-24 6982.145818732282ms ease forwards infinite;
    }
    @keyframes draw-24 {
    0% { stroke-dashoffset: 207; }
    72.59148184206859% { stroke-dashoffset: 207; }
    78.52% { stroke-dashoffset: 0; }
    92.84% { stroke-dashoffset: 0; }
    93.38% { stroke-dashoffset: 207; }
    100% { stroke-dashoffset: 207; }
    }
</style>
  <rect x="0" y="0" width="800" height="600" fill="#fff">

  </rect>
  <g mask="url(#brush)">
    <path
      d="M138.333,253.333L138.833,254.167C139.333,255,140.333,256.667,141.333,258.667C142.333,260.667,143.333,263,144,265.333C144.667,267.667,145,270,145.333,272C145.667,274,146,275.667,146.333,277.833C146.667,280,147,282.667,147.167,285.167C147.333,287.667,147.333,290,147.333,292.667C147.333,295.333,147.333,298.333,147.333,301.667C147.333,305,147.333,308.667,147.333,312.167C147.333,315.667,147.333,319,147.167,322.5C147,326,146.667,329.667,146.167,333.667C145.667,337.667,145,342,144.5,345.667C144,349.333,143.667,352.333,143.333,355.333C143,358.333,142.667,361.333,142.167,364.167C141.667,367,141,369.667,140.667,371.833C140.333,374,140.333,375.667,140,376.167C139.667,376.667,139,376,138.667,375.667L138.333,375.333"
      stroke-width="10" stroke-linecap="round" stroke-linejoin="round" stroke="#000" fill="none"
      class="line-0">

    </path>
    <path
      d="M182.333,197.333L183.5,196.833C184.667,196.333,187,195.333,189,194.667C191,194,192.667,193.667,194.167,193.333C195.667,193,197,192.667,198.833,192.167C200.667,191.667,203,191,205,190.667C207,190.333,208.667,190.333,210.5,190C212.333,189.667,214.333,189,216.5,188.5C218.667,188,221,187.667,222.833,187.333C224.667,187,226,186.667,228,186.333C230,186,232.667,185.667,235.167,185.5C237.667,185.333,240,185.333,242.167,185.333C244.333,185.333,246.333,185.333,249,185.333C251.667,185.333,255,185.333,258,185.333C261,185.333,263.667,185.333,265.667,185.333C267.667,185.333,269,185.333,270.667,185.333C272.333,185.333,274.333,185.333,276.167,185.333C278,185.333,279.667,185.333,281.167,185.5C282.667,185.667,284,186,285.333,186.5C286.667,187,288,187.667,289.5,188.333C291,189,292.667,189.667,294.5,190.333C296.333,191,298.333,191.667,299.833,192.667C301.333,193.667,302.333,195,303,196.333C303.667,197.667,304,199,304.333,200.5C304.667,202,305,203.667,305.333,205.667C305.667,207.667,306,210,306.333,212.167C306.667,214.333,307,216.333,307.167,218C307.333,219.667,307.333,221,307.333,222.667C307.333,224.333,307.333,226.333,307.5,228.333C307.667,230.333,308,232.333,308.167,235C308.333,237.667,308.333,241,308.333,243.667C308.333,246.333,308.333,248.333,308.333,251.167C308.333,254,308.333,257.667,308.333,261C308.333,264.333,308.333,267.333,308.333,270.167C308.333,273,308.333,275.667,308.333,279.5C308.333,283.333,308.333,288.333,308.333,292.167C308.333,296,308.333,298.667,308.333,301.5C308.333,304.333,308.333,307.333,308.333,310.5C308.333,313.667,308.333,317,308.333,321C308.333,325,308.333,329.667,308.333,333.5C308.333,337.333,308.333,340.333,308.167,343C308,345.667,307.667,348,307.333,350.333C307,352.667,306.667,355,306.5,357.5C306.333,360,306.333,362.667,306,364.833C305.667,367,305,368.667,304.667,370.333C304.333,372,304.333,373.667,304.333,375.333C304.333,377,304.333,378.667,304.167,380.333C304,382,303.667,383.667,303.333,385.167C303,386.667,302.667,388,302.5,389.5C302.333,391,302.333,392.667,302,394.667C301.667,396.667,301,399,300.667,401C300.333,403,300.333,404.667,300.167,406.167C300,407.667,299.667,409,299.333,410.333C299,411.667,298.667,413,298.167,414.667C297.667,416.333,297,418.333,296.667,420.333C296.333,422.333,296.333,424.333,296,426C295.667,427.667,295,429,294.333,430.333C293.667,431.667,293,433,292.667,434.333C292.333,435.667,292.333,437,292.333,438.333C292.333,439.667,292.333,441,292,442.333C291.667,443.667,291,445,290,445.5C289,446,287.667,445.667,286.5,444.667C285.333,443.667,284.333,442,283.167,440.333C282,438.667,280.667,437,279.5,435.667C278.333,434.333,277.333,433.333,276.5,432.167C275.667,431,275,429.667,274.667,428.833C274.333,428,274.333,427.667,274.333,427.5L274.333,427.333"
      stroke-width="10" stroke-linecap="round" stroke-linejoin="round" stroke="#000" fill="none"
      class="line-1">

    </path>
    <path
      d="M199.333,252.333L200.167,252C201,251.667,202.667,251,204.167,250.667C205.667,250.333,207,250.333,208.667,250.167C210.333,250,212.333,249.667,214.167,249.333C216,249,217.667,248.667,219.333,248.5C221,248.333,222.667,248.333,224.167,248C225.667,247.667,227,247,228.333,246.5C229.667,246,231,245.667,232.333,245.333C233.667,245,235,244.667,236.5,244.333C238,244,239.667,243.667,241.167,243.167C242.667,242.667,244,242,245.5,241.5C247,241,248.667,240.667,249.833,240.167C251,239.667,251.667,239,252,238.667L252.333,238.333"
      stroke-width="10" stroke-linecap="round" stroke-linejoin="round" stroke="#000" fill="none"
      class="line-2">

    </path>
    <path
      d="M234.333,230.333L234.167,231.167C234,232,233.667,233.667,233.333,235.667C233,237.667,232.667,240,232.5,242C232.333,244,232.333,245.667,232.167,247.5C232,249.333,231.667,251.333,231.333,253.167C231,255,230.667,256.667,230.5,258.167C230.333,259.667,230.333,261,230.333,262.5C230.333,264,230.333,265.667,230.333,267.5C230.333,269.333,230.333,271.333,230.333,273C230.333,274.667,230.333,276,230.167,277.333C230,278.667,229.667,280,229.333,281.5C229,283,228.667,284.667,228.333,286.167C228,287.667,227.667,289,227.167,290.5C226.667,292,226,293.667,225.333,295.167C224.667,296.667,224,298,223.5,298.667C223,299.333,222.667,299.333,222.5,299.333L222.333,299.333"
      stroke-width="10" stroke-linecap="round" stroke-linejoin="round" stroke="#000" fill="none"
      class="line-3">

    </path>
    <path
      d="M174.333,309.333L175.333,309.167C176.333,309,178.333,308.667,180.333,308.167C182.333,307.667,184.333,307,186,306.5C187.667,306,189,305.667,190.667,305.333C192.333,305,194.333,304.667,196,304.5C197.667,304.333,199,304.333,200.667,304C202.333,303.667,204.333,303,206.167,302.667C208,302.333,209.667,302.333,211.667,302.167C213.667,302,216,301.667,218,301.333C220,301,221.667,300.667,223.5,300.333C225.333,300,227.333,299.667,229.5,299.333C231.667,299,234,298.667,235.833,298.5C237.667,298.333,239,298.333,240.333,298.167C241.667,298,243,297.667,244.333,297.333C245.667,297,247,296.667,248.333,296.5C249.667,296.333,251,296.333,252.333,296.167C253.667,296,255,295.667,256.333,295.333C257.667,295,259,294.667,260.333,294.333C261.667,294,263,293.667,264.333,293.333C265.667,293,267,292.667,268.333,292.333C269.667,292,271,291.667,272.667,291.5C274.333,291.333,276.333,291.333,277.667,291.333C279,291.333,279.667,291.333,280,291.333L280.333,291.333"
      stroke-width="10" stroke-linecap="round" stroke-linejoin="round" stroke="#000" fill="none"
      class="line-4">

    </path>
    <path
      d="M188.333,334.333L188.333,335C188.333,335.667,188.333,337,188.333,338.333C188.333,339.667,188.333,341,188.5,342.667C188.667,344.333,189,346.333,189.167,348.5C189.333,350.667,189.333,353,189.333,355C189.333,357,189.333,358.667,189.333,360.167C189.333,361.667,189.333,363,189.333,364.333C189.333,365.667,189.333,367,189.333,367.667L189.333,368.333"
      stroke-width="10" stroke-linecap="round" stroke-linejoin="round" stroke="#000" fill="none"
      class="line-5">

    </path>
    <path
      d="M206.333,334.333L207,334.167C207.667,334,209,333.667,210.333,333.333C211.667,333,213,332.667,214.5,332.333C216,332,217.667,331.667,219.333,331.333C221,331,222.667,330.667,224.167,330.333C225.667,330,227,329.667,228.667,329.333C230.333,329,232.333,328.667,234.333,328.5C236.333,328.333,238.333,328.333,240.333,328.333C242.333,328.333,244.333,328.333,246.333,328.333C248.333,328.333,250.333,328.333,252,328.333C253.667,328.333,255,328.333,256.333,328.333C257.667,328.333,259,328.333,259.667,329C260.333,329.667,260.333,331,260.667,332.667C261,334.333,261.667,336.333,262,338C262.333,339.667,262.333,341,262.333,342.5C262.333,344,262.333,345.667,262,347.333C261.667,349,261,350.667,260.667,352.167C260.333,353.667,260.333,355,259.833,356.667C259.333,358.333,258.333,360.333,257.333,362.167C256.333,364,255.333,365.667,254.5,367.333C253.667,369,253,370.667,252.167,372C251.333,373.333,250.333,374.333,249.333,375.667C248.333,377,247.333,378.667,246.167,379.667C245,380.667,243.667,381,242.5,381.167C241.333,381.333,240.333,381.333,239.833,381.333L239.333,381.333"
      stroke-width="10" stroke-linecap="round" stroke-linejoin="round" stroke="#000" fill="none"
      class="line-6">

    </path>
    <path
      d="M224.333,381.333L223.667,381.333C223,381.333,221.667,381.333,220.333,381.333C219,381.333,217.667,381.333,216.167,381.333C214.667,381.333,213,381.333,211.5,381.333C210,381.333,208.667,381.333,207.833,381.5C207,381.667,206.667,382,206.5,382.167L206.333,382.333"
      stroke-width="10" stroke-linecap="round" stroke-linejoin="round" stroke="#000" fill="none"
      class="line-7">

    </path>
    <path
      d="M206.333,382.333L207,382.333C207.667,382.333,209,382.333,210.667,382.333C212.333,382.333,214.333,382.333,216.333,382.333C218.333,382.333,220.333,382.333,222,382.167C223.667,382,225,381.667,226.333,381.333C227.667,381,229,380.667,230.333,380.333C231.667,380,233,379.667,234.333,379.333C235.667,379,237,378.667,238.333,378.5C239.667,378.333,241,378.333,241.667,378.333L242.333,378.333"
      stroke-width="10" stroke-linecap="round" stroke-linejoin="round" stroke="#000" fill="none"
      class="line-8">

    </path>
    <path
      d="M373.333,216.333L373.833,216.833C374.333,217.333,375.333,218.333,376.5,219.667C377.667,221,379,222.667,380.5,224.833C382,227,383.667,229.667,384.833,231.667C386,233.667,386.667,235,387.5,236.667C388.333,238.333,389.333,240.333,390.167,242.167C391,244,391.667,245.667,392.667,247.833C393.667,250,395,252.667,395.667,254.667C396.333,256.667,396.333,258,396.667,259.667C397,261.333,397.667,263.333,398.333,265.333C399,267.333,399.667,269.333,400,271C400.333,272.667,400.333,274,400.333,275.5C400.333,277,400.333,278.667,400,280.167C399.667,281.667,399,283,398.667,283.667L398.333,284.333"
      stroke-width="10" stroke-linecap="round" stroke-linejoin="round" stroke="#000" fill="none"
      class="line-9">

    </path>
    <path
      d="M352.333,298.333L353,298.667C353.667,299,355,299.667,356,300.667C357,301.667,357.667,303,358.333,304.5C359,306,359.667,307.667,360.5,309.167C361.333,310.667,362.333,312,363,313.5C363.667,315,364,316.667,364.5,318.167C365,319.667,365.667,321,366.333,322.667C367,324.333,367.667,326.333,368.167,328.167C368.667,330,369,331.667,369.333,333.167C369.667,334.667,370,336,370.5,337.333C371,338.667,371.667,340,372.167,341.667C372.667,343.333,373,345.333,373.333,347C373.667,348.667,374,350,374.167,351.167C374.333,352.333,374.333,353.333,374.333,353.833L374.333,354.333"
      stroke-width="10" stroke-linecap="round" stroke-linejoin="round" stroke="#000" fill="none"
      class="line-10">

    </path>
    <path
      d="M361.333,408.333L361.833,407.167C362.333,406,363.333,403.667,364.167,401.667C365,399.667,365.667,398,366.333,396.167C367,394.333,367.667,392.333,369,389.667C370.333,387,372.333,383.667,374.167,380.333C376,377,377.667,373.667,379.833,369.667C382,365.667,384.667,361,387.667,355.833C390.667,350.667,394,345,396.667,340.333C399.333,335.667,401.333,332,403.5,328.167C405.667,324.333,408,320.333,410.667,315.833C413.333,311.333,416.333,306.333,418.667,302.667C421,299,422.667,296.667,423.5,295.5L424.333,294.333"
      stroke-width="10" stroke-linecap="round" stroke-linejoin="round" stroke="#000" fill="none"
      class="line-11">

    </path>
    <path
      d="M436.333,223.333L436.333,224.167C436.333,225,436.333,226.667,436.5,228.5C436.667,230.333,437,232.333,437.333,234.333C437.667,236.333,438,238.333,438.167,240.833C438.333,243.333,438.333,246.333,438.333,248.833C438.333,251.333,438.333,253.333,438.333,255.5C438.333,257.667,438.333,260,438.333,262.167C438.333,264.333,438.333,266.333,438.333,268.667C438.333,271,438.333,273.667,438.333,276C438.333,278.333,438.333,280.333,438.167,282.167C438,284,437.667,285.667,437.333,287.333C437,289,436.667,290.667,436.333,292.5C436,294.333,435.667,296.333,435.333,298C435,299.667,434.667,301,434.5,301.667L434.333,302.333"
      stroke-width="10" stroke-linecap="round" stroke-linejoin="round" stroke="#000" fill="none"
      class="line-12">

    </path>
    <path
      d="M438.333,270.333L439.333,269.667C440.333,269,442.333,267.667,444.333,266.5C446.333,265.333,448.333,264.333,450,263.5C451.667,262.667,453,262,454.667,261.167C456.333,260.333,458.333,259.333,460.333,258.5C462.333,257.667,464.333,257,466.333,256.167C468.333,255.333,470.333,254.333,472.167,253.333C474,252.333,475.667,251.333,477.667,250.5C479.667,249.667,482,249,484.167,248.167C486.333,247.333,488.333,246.333,490.167,245.667C492,245,493.667,244.667,495.333,244.167C497,243.667,498.667,243,500.5,242.333C502.333,241.667,504.333,241,506.667,240.333C509,239.667,511.667,239,513.667,238.333C515.667,237.667,517,237,518.667,236.333C520.333,235.667,522.333,235,523,234.5C523.667,234,523,233.667,522.667,233.5L522.333,233.333"
      stroke-width="10" stroke-linecap="round" stroke-linejoin="round" stroke="#000" fill="none"
      class="line-13">

    </path>
    <path
      d="M488.333,218.333L488.333,219.333C488.333,220.333,488.333,222.333,488.167,224.333C488,226.333,487.667,228.333,487.167,231C486.667,233.667,486,237,485.333,240C484.667,243,484,245.667,483.333,248.833C482.667,252,482,255.667,481.167,259.667C480.333,263.667,479.333,268,478.333,272.333C477.333,276.667,476.333,281,475.5,285C474.667,289,474,292.667,473.333,296.333C472.667,300,472,303.667,471.333,307.167C470.667,310.667,470,314,469.333,317.167C468.667,320.333,468,323.333,467.5,325.833C467,328.333,466.667,330.333,466,332.5C465.333,334.667,464.333,337,463.333,339.333C462.333,341.667,461.333,344,460.167,345.833C459,347.667,457.667,349,456.667,349.667C455.667,350.333,455,350.333,454.667,350.333L454.333,350.333"
      stroke-width="10" stroke-linecap="round" stroke-linejoin="round" stroke="#000" fill="none"
      class="line-14">

    </path>
    <path
      d="M410.333,360.333L411,359.667C411.667,359,413,357.667,415.667,356C418.333,354.333,422.333,352.333,425.667,350.667C429,349,431.667,347.667,434.333,346.333C437,345,439.667,343.667,442.333,342.333C445,341,447.667,339.667,450.333,338.333C453,337,455.667,335.667,458.333,334.5C461,333.333,463.667,332.333,466.333,331.333C469,330.333,471.667,329.333,474,328.5C476.333,327.667,478.333,327,480.667,326.333C483,325.667,485.667,325,488.167,324.333C490.667,323.667,493,323,495.167,322.667C497.333,322.333,499.333,322.333,501.5,322C503.667,321.667,506,321,508.333,320.667C510.667,320.333,513,320.333,515,320.167C517,320,518.667,319.667,520.5,319.5C522.333,319.333,524.333,319.333,525.333,319.5C526.333,319.667,526.333,320,526.333,320.167L526.333,320.333"
      stroke-width="10" stroke-linecap="round" stroke-linejoin="round" stroke="#000" fill="none"
      class="line-15">

    </path>
    <path
      d="M448.333,354.333L448.333,355.333C448.333,356.333,448.333,358.333,448.333,360C448.333,361.667,448.333,363,448.333,364.333C448.333,365.667,448.333,367,448.333,368.667C448.333,370.333,448.333,372.333,448,374.333C447.667,376.333,447,378.333,446.667,380.5C446.333,382.667,446.333,385,446.333,387C446.333,389,446.333,390.667,446.333,392.5C446.333,394.333,446.333,396.333,446.333,398C446.333,399.667,446.333,401,446.333,402C446.333,403,446.333,403.667,446.333,404L446.333,404.333"
      stroke-width="10" stroke-linecap="round" stroke-linejoin="round" stroke="#000" fill="none"
      class="line-16">

    </path>
    <path
      d="M448.333,362.333L449,362C449.667,361.667,451,361,452.333,360.333C453.667,359.667,455,359,456.333,358.333C457.667,357.667,459,357,460.333,356.5C461.667,356,463,355.667,464.5,355.333C466,355,467.667,354.667,469.333,354.167C471,353.667,472.667,353,474.333,352.333C476,351.667,477.667,351,479.5,350.5C481.333,350,483.333,349.667,485.167,349.333C487,349,488.667,348.667,490.5,348.167C492.333,347.667,494.333,347,497,346.667C499.667,346.333,503,346.333,505.333,346.167C507.667,346,509,345.667,510.667,345.5C512.333,345.333,514.333,345.333,516,345.333C517.667,345.333,519,345.333,520.333,345.5C521.667,345.667,523,346,524,347C525,348,525.667,349.667,526,351.667C526.333,353.667,526.333,356,526.333,358.167C526.333,360.333,526.333,362.333,526.333,364.333C526.333,366.333,526.333,368.333,526.333,370C526.333,371.667,526.333,373,526,374.667C525.667,376.333,525,378.333,524.5,380C524,381.667,523.667,383,523,384.667C522.333,386.333,521.333,388.333,520.5,390.5C519.667,392.667,519,395,518.167,397C517.333,399,516.333,400.667,515.667,402.167C515,403.667,514.667,405,513.833,406.667C513,408.333,511.667,410.333,510.5,412C509.333,413.667,508.333,415,507.333,416.333C506.333,417.667,505.333,419,504.167,420C503,421,501.667,421.667,500.333,422.333C499,423,497.667,423.667,496,424C494.333,424.333,492.333,424.333,491,424.333C489.667,424.333,489,424.333,488.667,424.333L488.333,424.333"
      stroke-width="10" stroke-linecap="round" stroke-linejoin="round" stroke="#000" fill="none"
      class="line-17">

    </path>
    <path
      d="M460.333,422.333L461.333,422C462.333,421.667,464.333,421,466.167,420.167C468,419.333,469.667,418.333,471.667,417.5C473.667,416.667,476,416,478.667,415.167C481.333,414.333,484.333,413.333,487.167,412.5C490,411.667,492.667,411,495.333,410.333C498,409.667,500.667,409,504.167,408.333C507.667,407.667,512,407,515.333,406.333C518.667,405.667,521,405,523.333,404.5C525.667,404,528,403.667,530,403.333C532,403,533.667,402.667,535,402.333C536.333,402,537.333,401.667,537.833,401.5L538.333,401.333"
      stroke-width="10" stroke-linecap="round" stroke-linejoin="round" stroke="#000" fill="none"
      class="line-18">

    </path>
    <path
      d="M690.333,161.333L691,162C691.667,162.667,693,164,694.167,166C695.333,168,696.333,170.667,697,173.167C697.667,175.667,698,178,698.333,180.5C698.667,183,699,185.667,699.167,187.833C699.333,190,699.333,191.667,699.333,193.5C699.333,195.333,699.333,197.333,699.333,199C699.333,200.667,699.333,202,698.833,203.167C698.333,204.333,697.333,205.333,696.5,206C695.667,206.667,695,207,694.667,207.167L694.333,207.333"
      stroke-width="10" stroke-linecap="round" stroke-linejoin="round" stroke="#000" fill="none"
      class="line-19">

    </path>
    <path
      d="M614.333,232.333L614.333,233C614.333,233.667,614.333,235,614.333,236.333C614.333,237.667,614.333,239,614.333,240.333C614.333,241.667,614.333,243,614.333,244.333C614.333,245.667,614.333,247,614.333,248.5C614.333,250,614.333,251.667,614.5,253.167C614.667,254.667,615,256,615.5,257.5C616,259,616.667,260.667,617.167,262.167C617.667,263.667,618,265,618.333,266.333C618.667,267.667,619,269,619.5,270C620,271,620.667,271.667,621,272L621.333,272.333"
      stroke-width="10" stroke-linecap="round" stroke-linejoin="round" stroke="#000" fill="none"
      class="line-20">

    </path>
    <path
      d="M620.333,251.333L621.333,251C622.333,250.667,624.333,250,626.5,249C628.667,248,631,246.667,633.167,245.667C635.333,244.667,637.333,244,639.167,243.333C641,242.667,642.667,242,644.333,241.333C646,240.667,647.667,240,649.667,239.167C651.667,238.333,654,237.333,656,236.5C658,235.667,659.667,235,661.5,234.333C663.333,233.667,665.333,233,667.167,232.333C669,231.667,670.667,231,672.167,230.333C673.667,229.667,675,229,676.667,228.333C678.333,227.667,680.333,227,682.167,226.667C684,226.333,685.667,226.333,687.667,226C689.667,225.667,692,225,693.833,224.333C695.667,223.667,697,223,698.333,222.667C699.667,222.333,701,222.333,702.667,222.333C704.333,222.333,706.333,222.333,708.167,222.333C710,222.333,711.667,222.333,713.333,222.333C715,222.333,716.667,222.333,718.333,222.333C720,222.333,721.667,222.333,723.833,222.333C726,222.333,728.667,222.333,730.833,222.333C733,222.333,734.667,222.333,736.333,222.333C738,222.333,739.667,222.333,741.333,222.333C743,222.333,744.667,222.333,746.167,222.333C747.667,222.333,749,222.333,750.333,222.333C751.667,222.333,753,222.333,753.667,223C754.333,223.667,754.333,225,754.667,226.333C755,227.667,755.667,229,756.333,230.333C757,231.667,757.667,233,758,234.5C758.333,236,758.333,237.667,758,239.167C757.667,240.667,757,242,756,243.5C755,245,753.667,246.667,751.833,248.167C750,249.667,747.667,251,746,252.167C744.333,253.333,743.333,254.333,742.167,255.167C741,256,739.667,256.667,738.333,257.5C737,258.333,735.667,259.333,734.333,260C733,260.667,731.667,261,731,261.167L730.333,261.333"
      stroke-width="10" stroke-linecap="round" stroke-linejoin="round" stroke="#000" fill="none"
      class="line-21">

    </path>
    <path
      d="M654.333,279.333L655.333,278.833C656.333,278.333,658.333,277.333,660.833,276.333C663.333,275.333,666.333,274.333,668.833,273.667C671.333,273,673.333,272.667,675,272.167C676.667,271.667,678,271,679.5,270.333C681,269.667,682.667,269,684.167,268.333C685.667,267.667,687,267,688.333,266.5C689.667,266,691,265.667,692.333,265.333C693.667,265,695,264.667,696,264.5C697,264.333,697.667,264.333,698,264.333L698.333,264.333"
      stroke-width="10" stroke-linecap="round" stroke-linejoin="round" stroke="#000" fill="none"
      class="line-22">

    </path>
    <path
      d="M572.333,331.333L573,331.5C573.667,331.667,575,332,576.5,332.167C578,332.333,579.667,332.333,581.333,332.333C583,332.333,584.667,332.333,586.833,332.333C589,332.333,591.667,332.333,594.5,332C597.333,331.667,600.333,331,603.667,330.167C607,329.333,610.667,328.333,615.333,327.167C620,326,625.667,324.667,630.333,323.5C635,322.333,638.667,321.333,642.833,320.167C647,319,651.667,317.667,657,316.167C662.333,314.667,668.333,313,673.333,311.667C678.333,310.333,682.333,309.333,685.833,308.5C689.333,307.667,692.333,307,695.167,306C698,305,700.667,303.667,703,302.667C705.333,301.667,707.333,301,709.167,300.5C711,300,712.667,299.667,714.167,299.333C715.667,299,717,298.667,718.667,298.167C720.333,297.667,722.333,297,724,296.667C725.667,296.333,727,296.333,728.333,296.333C729.667,296.333,731,296.333,731.667,296.333C732.333,296.333,732.333,296.333,732.333,296.333L732.333,296.333"
      stroke-width="10" stroke-linecap="round" stroke-linejoin="round" stroke="#000" fill="none"
      class="line-23">

    </path>
    <path
      d="M674.333,288.333L674.333,289.667C674.333,291,674.333,293.667,674.333,296C674.333,298.333,674.333,300.333,674.333,302.333C674.333,304.333,674.333,306.333,674.333,308.333C674.333,310.333,674.333,312.333,674,315.667C673.667,319,673,323.667,672.667,327.333C672.333,331,672.333,333.667,672,336.333C671.667,339,671,341.667,670.5,345.167C670,348.667,669.667,353,669.333,356.833C669,360.667,668.667,364,668.333,367.167C668,370.333,667.667,373.333,667.333,376.833C667,380.333,666.667,384.333,666.5,387.833C666.333,391.333,666.333,394.333,666.333,397.667C666.333,401,666.333,404.667,666.333,408.167C666.333,411.667,666.333,415,666.333,417.5C666.333,420,666.333,421.667,666.333,423.667C666.333,425.667,666.333,428,666.333,430.5C666.333,433,666.333,435.667,666.333,438.167C666.333,440.667,666.333,443,666.333,445.167C666.333,447.333,666.333,449.333,666.333,451.167C666.333,453,666.333,454.667,665.667,455.167C665,455.667,663.667,455,662.333,454.167C661,453.333,659.667,452.333,658.333,451.333C657,450.333,655.667,449.333,654.333,448.167C653,447,651.667,445.667,649.833,444.333C648,443,645.667,441.667,643.833,440.5C642,439.333,640.667,438.333,639.833,437.667C639,437,638.667,436.667,638.5,436.5L638.333,436.333"
      stroke-width="10" stroke-linecap="round" stroke-linejoin="round" stroke="#000" fill="none"
      class="line-24">

    </path>
  </g>
  <mask id="brush">
    <rect x="0" y="0" width="100%" height="100%" fill="black">

    </rect>
    <path
      d="M138.34,253.33L142.21,257.80L143.17,258.52L144.58,260.72L146.05,264.92L146.32,267.33L147.67,271.87L149.03,276.79L150.25,284.97L150.50,292.33L150.40,301.33L150.07,312.33L149.73,322.33L148.30,333.51L145.87,346.57L144.68,355.48L143.40,364.45L141.10,372.52L140.95,377.36L139.81,379.54L139.75,380.54L139.69,380.64L139.61,380.71L139.51,380.77L139.40,380.80L139.29,380.80L139.18,380.77L139.08,380.72L138.99,380.65L138.92,380.56L138.88,380.45L138.87,380.34L138.88,380.23L138.92,380.12L138.32,375.33L138.33,375.33L138.34,375.33L139.75,380.54L139.69,380.64L139.61,380.71L139.51,380.77L139.40,380.80L139.29,380.80L139.18,380.77L139.08,380.72L138.99,380.65L138.92,380.56L138.88,380.45L138.87,380.34L138.88,380.23L138.92,380.12L138.86,379.12L139.71,377.30L139.57,372.15L141.27,364.21L141.99,355.18L142.80,346.10L144.37,333.15L144.94,322.33L144.60,312.33L144.27,301.33L144.17,292.33L144.41,285.70L143.63,277.87L143.00,272.80L142.35,267.34L142.62,265.75L142.08,261.95L141.50,260.14L140.46,258.87L138.32,253.34Z"
      fill="white">

    </path>
    <path
      d="M182.33,197.32L189.00,193.54L194.09,192.09L197.94,190.76L204.80,188.40L210.29,187.95L215.48,185.75L222.91,184.39L226.54,183.13L234.93,182.04L242.33,181.89L248.33,181.69L258.33,182.26L266.33,182.32L270.33,182.01L276.33,181.86L281.33,181.65L283.52,181.50L286.96,182.64L289.49,183.91L289.25,183.29L291.61,184.73L290.55,183.74L294.48,185.05L296.31,185.87L298.83,186.82L299.41,188.43L302.95,188.66L306.11,191.85L306.22,191.45L307.28,192.39L308.82,194.50L310.08,199.33L310.08,200.06L310.66,199.98L311.27,205.33L311.31,208.29L312.10,210.89L312.91,217.42L313.00,222.33L312.76,228.32L313.49,233.49L312.46,244.33L312.48,250.33L311.69,261.33L311.35,270.33L311.29,278.33L310.82,293.33L310.88,301.33L310.74,310.33L310.43,320.33L310.19,334.33L310.23,343.34L309.51,350.64L308.75,357.67L308.83,365.40L306.98,371.31L307.47,375.33L307.72,380.35L306.87,386.04L306.06,390.24L306.32,394.38L304.04,402.35L304.47,406.36L303.49,411.34L302.62,415.69L302.82,417.76L300.36,422.49L301.10,422.33L301.01,426.56L298.52,432.18L298.85,431.77L296.26,436.44L296.89,436.33L296.87,438.33L296.87,439.33L296.86,440.33L296.84,441.33L292.33,446.83L293.54,445.44L294.27,446.07L294.16,448.20L291.38,451.58L284.30,448.33L285.65,448.24L284.52,448.43L281.68,444.10L280.86,441.78L278.82,440.05L277.60,436.01L277.16,435.51L275.42,432.91L275.62,430.50L274.32,427.33L274.33,427.33L274.34,427.33L277.05,430.17L277.25,431.75L279.51,433.16L281.07,434.66L281.85,436.61L285.81,438.88L286.99,440.57L288.15,442.24L291.02,444.42L292.37,448.33L287.28,445.08L286.51,446.47L286.10,446.33L286.39,442.59L289.12,439.23L292.33,437.84L287.82,441.33L287.81,440.33L287.80,439.33L287.80,438.33L287.77,436.33L288.40,432.22L289.81,430.90L290.15,428.49L291.65,426.11L291.57,422.33L292.31,418.17L293.84,416.90L294.04,412.98L294.97,411.26L295.17,409.33L296.20,406.30L296.37,402.33L296.63,400.32L298.34,394.29L298.61,388.43L299.80,384.63L300.95,380.32L301.20,375.33L301.69,369.36L303.84,365.27L303.92,356.99L305.16,350.02L306.44,343.33L306.47,334.33L306.24,320.33L305.92,310.33L305.79,301.33L305.84,293.33L305.37,278.33L305.32,270.33L304.98,261.33L304.18,250.33L304.20,244.33L303.18,235.18L301.90,228.35L301.67,222.33L301.76,219.25L300.56,213.77L299.36,208.38L299.40,205.33L300.00,204.69L298.59,200.61L298.59,199.33L299.85,200.16L299.39,200.28L298.45,199.22L296.55,196.82L297.72,196.01L295.26,196.24L293.83,193.85L292.36,194.80L290.19,193.62L290.11,192.92L287.06,191.94L287.42,191.37L285.17,190.76L285.47,190.16L283.70,190.02L283.15,189.17L281.33,189.02L276.33,188.81L270.33,188.65L266.33,188.35L258.33,188.40L248.33,188.98L242.33,188.78L235.74,188.62L228.13,189.53L223.75,190.27L217.19,190.92L210.37,192.72L205.86,192.27L198.73,193.91L194.58,194.57L189.67,195.13L182.34,197.34Z"
      fill="white">

    </path>
    <path
      d="M199.33,252.32L208.08,249.21L214.08,247.79L218.96,246.42L224.22,246.03L227.28,243.94L230.21,243.76L231.20,243.07L233.36,242.13L236.22,242.05L237.47,241.39L241.25,241.50L242.61,240.89L244.74,240.14L248.07,239.50L250.31,239.77L252.32,238.33L252.33,238.33L252.34,238.33L250.36,240.89L248.60,241.17L245.93,242.53L244.05,243.77L241.42,245.17L239.19,245.28L236.44,246.62L235.31,246.53L233.47,247.60L230.46,248.91L229.39,248.72L224.44,250.64L219.71,250.25L214.59,250.87L208.58,251.45L199.34,252.34Z"
      fill="white">

    </path>
    <path
      d="M234.34,230.34L233.51,238.62L233.90,242.33L234.30,247.34L233.65,253.72L233.00,258.86L233.38,262.33L233.70,267.33L233.74,270.33L233.65,273.33L233.59,275.33L233.57,276.33L233.54,277.33L233.46,278.48L232.07,281.54L231.99,284.46L230.57,287.32L230.56,288.44L229.10,291.21L227.77,293.81L226.39,295.80L226.16,297.33L225.33,298.99L222.33,299.34L222.33,299.33L222.33,299.32L225.33,297.68L224.50,297.33L224.28,294.87L224.90,292.85L225.57,289.45L226.11,288.23L226.10,285.35L226.68,284.21L226.37,281.33L226.59,279.12L227.20,278.18L227.13,277.33L227.10,276.33L227.07,275.33L227.01,273.33L226.93,270.33L226.97,267.33L227.29,262.33L227.67,257.81L229.02,252.95L230.37,247.33L230.77,242.33L231.15,238.05L234.32,230.33Z"
      fill="white">

    </path>
    <path
      d="M174.33,309.32L180.18,307.45L182.95,306.20L185.86,304.91L189.88,303.51L195.96,302.07L200.29,301.70L205.44,299.51L211.33,299.04L217.84,297.90L222.60,296.66L228.70,295.46L232.30,295.19L235.36,294.33L240.30,294.28L243.38,293.52L247.45,292.69L252.17,292.85L252.96,292.22L256.33,292.00L258.18,292.16L259.12,291.59L261.33,291.37L262.33,291.45L262.75,291.78L262.46,291.46L264.08,290.35L267.33,290.08L268.33,290.21L270.25,290.51L271.74,289.98L275.33,290.36L280.33,291.32L280.33,291.33L280.33,291.34L275.33,292.30L272.93,292.68L270.42,294.15L268.33,294.46L267.33,294.59L266.58,294.32L266.21,295.21L263.91,296.89L262.33,297.21L261.55,297.08L258.48,298.50L256.33,298.66L255.71,298.44L252.50,299.82L249.22,299.97L245.29,301.14L240.36,302.39L237.30,302.33L232.36,303.48L229.97,303.21L224.07,304.01L218.82,304.77L211.34,305.63L207.22,305.16L200.38,306.97L196.71,306.60L190.79,307.16L186.81,307.76L183.71,308.47L180.48,309.22L174.33,309.34Z"
      fill="white">

    </path>
    <path
      d="M188.34,334.33L189.40,342.33L189.60,344.32L190.92,347.95L191.26,351.33L191.00,355.33L190.83,357.33L190.50,360.33L190.25,362.33L189.98,364.33L189.34,368.33L189.33,368.33L189.32,368.33L188.69,364.33L188.41,362.33L188.17,360.33L187.84,357.33L187.66,355.33L187.40,351.33L187.75,348.72L187.07,344.34L187.27,342.33L188.32,334.33Z"
      fill="white">

    </path>
    <path
      d="M206.33,334.32L211.96,331.15L214.33,330.89L218.97,329.51L223.89,328.12L227.70,326.80L233.86,325.43L240.33,325.09L246.33,324.83L248.33,324.61L252.33,324.34L254.33,324.14L256.33,323.94L257.33,323.83L258.33,323.72L259.33,323.62L265.16,328.33L265.26,329.33L265.36,330.33L265.46,331.33L265.49,332.09L266.09,331.86L266.68,332.59L267.80,338.33L267.81,340.33L267.81,342.33L267.80,344.33L267.71,347.33L267.14,351.42L264.40,354.90L265.15,356.41L263.69,360.83L260.91,364.71L260.02,366.18L257.45,369.41L255.19,371.87L255.40,372.48L253.61,375.85L251.23,376.34L251.37,377.80L249.34,379.93L248.25,379.63L247.64,381.01L245.94,382.30L244.33,382.37L239.33,381.34L239.33,381.33L239.33,381.32L244.72,380.36L245.03,379.65L246.41,377.04L247.29,376.87L247.44,374.33L249.06,372.82L249.27,372.19L249.48,368.80L251.22,365.26L252.64,362.48L253.76,359.95L254.98,357.84L255.52,356.25L256.27,349.77L257.53,349.24L256.96,347.33L256.86,344.33L256.85,342.33L256.86,340.33L256.87,338.33L257.99,338.07L256.58,336.81L255.17,332.58L255.21,331.33L255.31,330.33L255.41,329.33L255.51,328.33L259.33,333.05L258.33,332.94L257.33,332.83L256.33,332.72L254.33,332.53L252.33,332.33L248.33,332.05L246.33,331.84L240.33,331.58L234.81,331.24L228.96,331.86L224.78,332.54L219.70,333.16L214.34,333.78L212.71,333.51L206.34,334.34Z"
      fill="white">

    </path>
    <path
      d="M224.33,381.34L219.33,382.25L218.33,382.35L217.33,382.46L216.33,382.57L214.33,382.55L213.33,382.45L211.33,382.22L210.33,382.09L209.33,381.96L208.33,381.82L206.34,382.33L206.33,382.33L206.32,382.33L208.33,380.85L209.33,380.71L210.33,380.58L211.33,380.45L213.33,380.22L214.33,380.12L216.33,380.10L217.33,380.21L218.33,380.31L219.33,380.42L224.33,381.32Z"
      fill="white">

    </path>
    <path
      d="M206.33,382.32L213.33,381.30L216.33,381.01L219.33,380.72L222.30,380.42L224.66,379.21L226.23,379.15L227.52,378.49L229.33,378.38L230.33,378.47L231.33,378.57L231.99,378.82L232.59,378.15L234.33,377.96L235.33,378.10L236.33,378.24L237.14,378.47L237.97,377.76L239.33,377.78L242.33,378.32L242.33,378.33L242.33,378.34L239.33,378.89L238.69,378.91L237.53,380.20L236.33,380.43L235.33,380.57L234.08,380.52L232.68,381.85L231.33,382.10L230.33,382.20L229.15,382.17L226.44,383.52L226.00,383.45L222.36,384.25L219.33,383.95L216.33,383.66L213.33,383.37L206.33,382.34Z"
      fill="white">

    </path>
    <path
      d="M373.34,216.33L378.10,220.72L381.30,223.38L383.74,226.39L387.15,231.24L389.56,235.22L392.85,241.08L395.25,246.15L397.21,248.43L399.47,254.18L399.42,259.04L400.89,260.96L401.04,265.07L402.46,267.19L402.52,271.33L402.32,273.33L402.09,275.33L401.83,277.33L401.69,278.33L401.39,280.33L400.33,283.07L399.33,282.90L398.34,284.33L398.33,284.33L398.32,284.33L399.33,281.77L400.33,281.60L399.27,280.33L398.97,278.33L398.84,277.33L398.58,275.33L398.35,273.33L398.15,271.33L398.20,269.48L395.62,265.59L395.77,263.71L393.25,259.63L393.20,256.49L391.46,252.23L389.42,248.51L387.82,243.59L385.11,237.45L383.52,233.42L380.92,228.27L379.37,225.29L376.57,221.95L373.33,216.34Z"
      fill="white">

    </path>
    <path
      d="M352.34,298.33L358.14,301.40L359.65,303.68L360.86,305.58L362.23,308.67L365.30,311.99L367.05,317.76L369.12,320.94L371.19,327.38L371.91,332.82L372.56,336.76L373.98,340.51L374.76,343.88L374.45,347.32L374.96,350.13L374.84,351.33L374.34,354.33L374.33,354.33L374.32,354.33L373.82,351.33L373.70,350.53L372.21,347.35L371.91,344.78L370.68,342.16L368.11,337.90L366.76,333.85L365.47,329.28L363.54,323.72L361.62,318.90L361.37,314.68L358.44,310.00L357.81,307.09L357.02,304.99L356.53,303.26L352.33,298.34Z"
      fill="white">

    </path>
    <path
      d="M361.32,408.33L365.64,396.04L367.26,389.97L373.21,379.66L378.09,369.71L386.05,355.60L396.15,338.64L402.30,327.77L409.57,315.89L419.03,301.15L424.33,294.33L424.33,294.33L424.34,294.34L419.63,301.51L411.09,316.78L404.37,328.90L398.52,340.03L388.62,357.07L380.58,370.96L375.45,381.01L369.41,390.70L367.03,396.62L361.34,408.34Z"
      fill="white">

    </path>
    <path
      d="M436.34,223.33L438.32,234.24L439.70,240.11L439.98,249.33L440.37,255.33L440.69,262.33L440.85,268.33L440.40,276.33L440.15,282.34L438.86,287.64L437.49,292.56L437.25,295.35L435.89,298.51L434.34,302.34L434.33,302.33L434.33,302.33L434.78,298.16L435.41,295.32L435.18,292.11L435.81,287.03L436.51,282.33L436.27,276.33L435.81,268.33L435.98,262.33L436.30,255.33L436.69,249.33L436.97,240.56L436.35,234.42L436.32,223.33Z"
      fill="white">

    </path>
    <path
      d="M438.33,270.33L443.84,265.60L449.74,262.14L453.57,259.81L459.40,256.46L465.55,254.01L471.10,250.87L475.78,247.69L483.44,245.23L488.99,242.58L494.74,241.43L499.32,239.79L505.61,238.15L513.97,236.92L517.89,235.34L519.31,235.32L524.03,234.20L522.33,233.32L522.33,233.32L522.33,233.32L522.34,233.32L522.34,233.32L522.34,233.33L522.34,233.33L522.34,233.33L522.34,233.33L522.34,233.34L522.34,233.34L522.34,233.34L522.34,233.34L522.34,233.34L522.33,233.33L522.33,233.32L522.33,233.32L522.33,233.32L522.34,233.32L522.34,233.32L522.34,233.33L522.34,233.33L522.34,233.33L522.34,233.33L522.34,233.34L522.34,233.34L522.34,233.34L522.34,233.34L522.34,233.34L524.64,234.47L519.36,237.35L518.77,237.33L514.69,239.75L507.06,242.51L501.35,244.88L495.92,247.24L491.68,248.08L485.23,251.44L478.89,252.98L473.57,255.80L467.11,258.66L461.27,260.20L455.09,262.86L450.93,264.52L444.82,267.07L438.34,270.34Z"
      fill="white">

    </path>
    <path
      d="M488.34,218.33L487.96,230.39L486.16,240.50L484.47,248.62L482.60,259.56L479.68,272.64L476.71,285.65L474.66,296.57L472.54,307.55L470.40,317.55L468.33,326.55L467.46,332.53L464.22,339.71L463.22,342.63L461.00,346.63L460.81,347.67L458.55,348.82L457.56,348.65L454.33,350.34L454.33,350.33L454.33,350.32L457.11,348.02L458.12,347.85L459.85,346.99L459.67,346.04L461.44,342.04L462.45,338.96L465.20,332.14L466.34,326.11L468.27,317.12L470.12,307.11L472.01,296.09L473.96,285.02L476.99,272.02L480.06,259.10L482.19,248.05L484.51,240.17L486.71,230.28L488.32,218.33Z"
      fill="white">

    </path>
    <path
      d="M410.33,360.33L416.85,354.65L425.80,349.37L433.72,345.12L441.63,340.92L449.55,336.76L457.49,332.64L465.61,329.41L473.60,326.39L479.61,324.17L487.82,322.27L494.79,320.37L501.31,320.34L507.90,318.74L515.33,319.09L520.16,318.44L522.33,318.56L526.33,318.96L526.34,320.33L526.33,320.33L526.32,320.33L526.33,319.70L522.33,320.10L520.51,320.23L515.34,321.57L508.77,321.93L501.35,324.32L495.87,324.30L488.85,326.40L481.06,328.50L475.06,330.28L467.05,333.25L459.18,336.02L451.12,339.90L443.04,343.74L434.94,347.55L426.87,351.29L417.82,356.02L410.34,360.34Z"
      fill="white">

    </path>
    <path
      d="M448.34,354.33L449.45,364.33L449.79,368.33L450.19,374.36L448.42,380.99L448.45,383.33L448.23,387.33L447.80,392.33L447.52,395.33L447.19,398.33L446.34,404.33L446.33,404.33L446.32,404.33L445.48,398.33L445.15,395.33L444.87,392.33L444.44,387.33L444.21,383.33L444.25,379.68L446.48,374.30L446.87,368.33L447.21,364.33L448.32,354.33Z"
      fill="white">

    </path>
    <path
      d="M448.33,362.32L453.86,358.38L455.75,357.18L459.59,354.83L463.84,353.34L468.85,351.94L473.29,349.73L478.18,347.41L484.77,345.96L489.60,344.70L495.17,342.65L499.33,342.21L506.30,342.21L509.31,341.10L513.33,340.76L516.33,340.57L517.33,340.47L519.33,340.32L520.33,340.23L527.57,345.33L522.33,341.01L523.33,340.93L529.81,346.33L529.43,347.18L529.39,345.40L531.54,349.03L532.17,353.33L532.22,354.33L532.21,358.33L532.26,361.33L532.30,364.33L532.33,367.33L532.35,370.33L532.22,374.61L530.70,378.98L530.04,381.76L528.90,385.76L525.01,392.40L525.49,392.47L522.81,399.14L519.10,404.53L518.20,407.61L515.21,411.12L513.59,413.96L512.43,415.95L509.68,418.60L509.05,419.75L507.42,421.42L506.32,422.32L503.56,424.28L500.33,424.53L499.76,424.22L499.63,424.67L496.94,425.70L494.33,425.50L488.33,424.34L488.33,424.33L488.33,424.32L494.33,423.17L495.73,422.97L497.04,422.00L498.91,420.45L500.33,420.14L501.11,420.39L502.35,418.35L503.25,417.25L503.62,416.92L504.99,414.07L506.23,412.72L507.07,410.70L509.46,405.55L510.47,405.05L511.56,400.14L513.85,395.53L515.18,392.20L515.66,388.27L517.77,382.91L518.63,378.91L519.97,373.68L520.45,374.05L520.31,370.33L520.34,367.33L520.37,364.33L520.41,361.33L520.46,358.33L520.44,354.33L520.50,353.33L521.27,353.26L519.23,349.49L518.86,346.33L523.33,351.73L522.33,351.65L517.10,345.33L520.33,350.44L519.33,350.35L517.33,350.20L516.33,350.10L513.33,349.90L511.36,349.56L506.36,350.46L499.33,350.46L497.50,350.02L491.06,351.96L485.90,352.70L480.49,353.26L475.38,354.94L469.82,356.72L464.83,357.32L461.08,357.84L456.91,359.49L454.81,360.29L448.34,362.34Z"
      fill="white">

    </path>
    <path
      d="M460.33,422.32L470.94,416.46L477.97,414.05L486.85,410.89L494.90,408.59L502.87,406.47L516.14,405.10L523.05,403.33L530.23,402.64L535.26,401.97L538.33,401.32L538.33,401.33L538.33,401.34L535.40,402.69L530.43,404.03L523.62,405.34L516.52,407.57L503.80,410.19L495.77,412.08L487.82,413.78L478.70,416.62L471.73,418.21L460.34,422.34Z"
      fill="white">

    </path>
    <path
      d="M690.34,161.33L695.04,164.63L697.46,167.63L699.06,172.99L700.49,180.03L700.80,183.32L701.81,187.85L701.44,193.33L701.19,196.33L700.89,199.33L700.53,202.33L700.40,203.38L698.95,205.74L694.34,207.34L694.33,207.33L694.33,207.33L697.72,204.92L698.27,203.28L698.14,202.33L697.78,199.33L697.48,196.33L697.23,193.33L696.86,188.82L695.86,183.34L696.18,180.64L695.60,173.68L695.20,169.04L693.62,166.04L690.33,161.34Z"
      fill="white">

    </path>
    <path
      d="M614.34,232.33L615.35,238.33L615.55,240.33L615.76,242.33L615.98,244.33L616.20,246.33L616.42,248.33L616.72,251.33L616.94,253.31L617.67,256.74L618.30,258.35L619.07,261.76L619.54,266.04L619.27,268.29L619.86,270.07L621.33,272.32L621.33,272.33L621.33,272.34L618.81,270.59L617.40,268.38L617.13,266.63L615.60,262.91L614.36,260.32L612.99,257.93L611.72,253.35L611.94,251.33L612.25,248.33L612.47,246.33L612.69,244.33L612.90,242.33L613.11,240.33L613.32,238.33L614.32,232.33Z"
      fill="white">

    </path>
    <path
      d="M620.33,251.32L627.90,247.19L632.50,243.93L638.69,241.41L643.44,239.10L648.31,236.77L655.17,233.63L660.12,231.31L666.23,229.04L670.95,226.87L674.56,224.77L681.12,222.47L686.94,222.22L688.29,220.52L694.12,219.80L696.46,218.09L702.33,217.53L708.33,217.62L713.33,217.58L718.33,217.55L723.33,217.52L731.33,217.98L736.33,217.91L741.33,217.87L746.33,217.85L750.33,217.79L752.33,217.69L759.05,222.33L759.11,223.33L759.16,224.33L759.20,225.33L759.24,226.33L758.85,227.31L758.85,225.82L759.91,226.87L759.32,228.59L763.31,232.33L763.31,233.33L763.31,234.33L763.25,236.33L763.24,237.33L763.16,239.33L762.99,240.78L760.07,245.85L757.37,248.35L755.51,250.59L751.28,253.27L746.68,254.92L743.95,257.00L739.06,258.78L734.77,260.95L730.34,261.34L730.33,261.33L730.33,261.32L733.90,259.72L737.60,255.88L740.72,253.67L743.99,249.74L747.38,247.40L749.15,246.07L751.29,242.32L752.60,240.82L753.67,239.89L753.51,239.33L753.43,237.33L753.41,236.33L753.36,234.33L753.36,233.33L753.36,232.33L755.35,236.07L752.76,233.79L751.82,232.85L749.82,229.36L749.43,226.33L749.47,225.33L749.51,224.33L749.56,223.33L749.61,222.33L752.33,226.97L750.33,226.88L746.33,226.81L741.33,226.80L736.33,226.76L731.33,226.69L723.33,227.15L718.33,227.12L713.33,227.08L708.33,227.04L702.33,227.14L700.21,226.58L694.55,228.87L692.38,228.15L687.73,230.45L683.55,230.20L678.11,231.90L673.72,233.79L668.43,235.63L662.54,237.36L657.49,239.04L650.36,241.89L645.22,243.56L639.97,245.25L634.17,246.74L628.77,249.48L620.34,251.34Z"
      fill="white">

    </path>
    <path
      d="M654.33,279.32L662.94,275.15L668.62,271.85L674.97,270.33L678.45,268.56L683.73,266.83L687.83,265.20L690.28,265.26L691.95,264.57L694.10,263.81L695.33,263.88L698.33,264.32L698.33,264.33L698.33,264.34L695.33,264.78L694.57,264.86L692.71,266.09L690.38,267.40L688.83,267.47L684.93,269.84L680.22,272.11L675.69,274.33L670.05,274.81L663.73,277.51L654.34,279.34Z"
      fill="white">

    </path>
    <path
      d="M572.33,331.32L578.45,331.61L581.33,331.35L586.33,330.98L594.32,330.62L602.92,328.49L613.83,325.49L630.89,321.45L641.86,318.58L655.87,314.72L673.93,309.87L686.01,307.03L695.04,305.06L702.78,301.23L708.92,299.08L714.07,298.02L718.02,297.09L720.96,296.20L724.03,295.36L728.33,295.64L730.33,295.84L732.33,296.32L732.34,296.32L732.34,296.32L732.34,296.33L732.34,296.33L732.34,296.33L732.34,296.33L732.34,296.33L732.34,296.34L732.34,296.34L732.34,296.34L732.34,296.34L732.34,296.34L732.33,296.34L732.33,296.33L732.33,296.32L732.34,296.32L732.34,296.32L732.34,296.33L732.34,296.33L732.34,296.33L732.34,296.33L732.34,296.33L732.34,296.34L732.34,296.34L732.34,296.34L732.34,296.34L732.34,296.34L732.33,296.34L730.33,296.83L728.33,297.02L724.64,297.31L721.71,298.46L718.65,299.58L714.60,300.65L709.75,301.59L703.88,303.43L695.63,307.61L686.66,309.64L674.74,312.79L656.79,317.95L642.81,322.08L631.78,325.22L614.83,329.17L603.74,332.18L594.34,334.04L586.33,333.69L581.33,333.31L578.22,333.05L572.33,331.34Z"
      fill="white">

    </path>
    <path
      d="M674.34,288.33L674.93,296.33L675.31,302.33L675.71,308.33L676.11,314.34L674.30,328.61L674.55,336.35L672.64,344.90L671.53,357.50L670.32,367.53L669.32,376.55L668.12,388.48L668.18,397.33L668.01,408.33L667.89,418.33L668.35,423.33L668.60,430.33L668.62,438.33L668.90,441.33L669.13,445.33L669.31,448.33L669.45,451.33L669.54,454.33L669.61,456.33L669.65,457.33L669.69,458.33L669.59,459.14L669.30,459.89L668.84,460.56L668.24,461.09L667.52,461.47L666.74,461.66L665.93,461.66L665.14,461.47L664.43,461.09L663.82,460.56L663.36,459.89L663.08,459.14L662.98,458.33L664.04,458.97L662.81,459.26L660.03,456.63L658.14,454.60L656.95,454.07L652.76,450.43L648.93,445.74L646.45,443.66L642.88,441.23L638.33,436.34L638.33,436.33L638.34,436.33L643.78,439.44L648.22,441.01L651.73,442.92L655.91,446.24L659.71,448.59L662.52,450.07L664.63,452.03L665.86,453.41L668.63,455.70L669.69,458.33L669.59,459.14L669.30,459.89L668.84,460.56L668.24,461.09L667.52,461.47L666.74,461.66L665.93,461.66L665.14,461.47L664.43,461.09L663.82,460.56L663.36,459.89L663.08,459.14L662.98,458.33L663.02,457.33L663.06,456.33L663.13,454.33L663.22,451.33L663.36,448.33L663.54,445.33L663.77,441.33L664.05,438.33L664.07,430.33L664.32,423.33L664.78,418.33L664.65,408.33L664.49,397.33L664.55,388.19L665.35,376.11L666.35,367.14L667.13,357.16L668.02,343.76L670.12,336.32L670.37,328.06L672.56,314.33L672.96,308.33L673.36,302.33L673.74,296.33L674.32,288.33Z"
      fill="white">

    </path>
  </mask>
</svg>